<?xml version="1.0" encoding="utf-8"?>
<!-- Generator: Adobe Illustrator 23.0.1, SVG Export Plug-In . SVG Version: 6.00 Build 0)  -->
<svg version="1.1" id="Ebene_5" xmlns="http://www.w3.org/2000/svg" xmlns:xlink="http://www.w3.org/1999/xlink" x="0px" y="0px"
	 viewBox="0 0 1516.6 1281.6" style="enable-background:new 0 0 1516.6 1281.6;" xml:space="preserve">
<style type="text/css">
	.st0{fill:#FFFFFF;}
</style>
<g id="Anatomie">
	<g id="Icon">
		<path class="st0" d="M138.8,598.5l-67.5-33.2l38.9-73c12.9-140.4,16.4-229.9,10.7-273.4l-0.2-1.1c-1.5-11.1-5.4-40.6,7.7-73.5
			c1.6-3.9,10.2-24.4,26.2-41.2c18.7-19.6,44.4-31.3,78.8-35.7c29.1-3.8,59.5-1.8,86.3,0c35.1,2.3,88.1,5.8,136.7,39.6
			c1.5,1.1,37.6,26.6,52.3,69.1c4.4,12.7,1.5,19.6-0.7,22.6c-4.4,6.2-12.8,8.2-19.1,7.4c-10.5-1.3-16.9-10-19.6-13.7
			c-4.1-5.6-8.5-11.2-12.7-16.6c-6.7-8.6-13.7-17.5-19.9-26.9c-17.1-26-52.2-32.6-77.8-37.5c-20.4-3.9-44.6,0.4-92.7,9
			c-18.1,3.2-20.8,8.4-21.3,9.9c-0.2,0.6-0.6,3,0.1,8.9c0.3,2.1,0.8,4.2,1.5,6.3c0.7,1.9,1.2,3.9,1.2,6c0.3,9.2-6.8,15.7-11.5,20
			c-8.1,7.3-18,12.1-28.7,13.9c-4.8,0.8-9.6,0.8-14.4,0c-4.8-0.8-9.7-0.8-14.5,0c-8.3,1.2-14.8,3.6-17.9,6.7
			c-3.6,3.6-4.8,7.7-6,11.4c-1.9,6.4-2.2,13.2-0.8,19.8l0.1,0.3c2.7,14.1,7,115.7,13.6,319.5v1.3L138.8,598.5z M85,560.9l49.6,24.4
			l23.2-43.2c-6.5-199.6-10.9-303.2-13.4-316.6l-0.1-0.3c-1.7-8.2-1.3-16.6,1.1-24.6c1.2-4.1,3.1-10.3,8.4-15.6
			c4.7-4.7,12.8-8,23.5-9.5c5.7-0.9,11.6-0.9,17.3,0c3.8,0.7,7.6,0.7,11.4,0c8.8-1.5,16.9-5.4,23.5-11.4c3.8-3.5,8.4-7.8,8.3-12.4
			c-0.1-1-0.3-2-0.7-3c-0.9-2.6-1.6-5.4-1.9-8.2c-0.7-5.5-0.7-9.8,0.1-12.7c2.3-8.5,11.8-14,29.2-17.1c49.4-8.8,74.2-13.2,96.3-9
			c27.3,5.2,64.8,12.3,84.3,41.8c6,9,12.8,17.8,19.4,26.2c4.3,5.5,8.7,11.1,12.8,16.8c2.1,2.9,6.6,9,12.8,9.7
			c3.4,0.4,7.8-0.6,9.8-3.3c0.4-0.6,2.5-4.2-0.7-13.5c-13.6-39.5-48.2-63.9-48.6-64.1C404.4,83,353.1,79.6,319.1,77.4
			c-52.8-3.5-118.6-7.8-157.2,32.7c-15.1,15.8-23.3,35.8-24.2,38c-12.1,30.4-8.4,58-7,68.4l0.1,1.1c5.8,44.4,2.3,134.8-10.8,276.6
			l-0.1,1L85,560.9z"/>
		<path class="st0" d="M166.1,298c-6,0-9.7-7.5-12.5-14.9c-3.3-8.2-4.4-17.2-3-26c2.7-16.4,13.2-26.4,17.7-30.7
			c15.6-14.9,34.2-18.7,41.2-20.2c46.4-9.6,94.3-11.5,103.5-11.8c11.5-0.4,47.7,1.4,128.3,5.4c6.1,0.4,12.2,1.2,18.2,2.4
			c14,3,21.7,7.9,23.3,14.9c0.8,4.2,0.8,8.5,0.1,12.8l0,0c-0.4,2.4-1,4.8-2,7c-0.4,0.6-0.6,1.4-0.6,2.1c0,1.4,0.4,2,2.2,4.3
			c2.4,2.7,4.3,5.9,5.6,9.3c0.9,2.4,4.9,14.8-1.9,22.2c-5.3,5.8-13.5,4.9-19.5,4.3c-5.7-0.5-11.3-2.2-16.3-5
			c-3.3-1.8-6.9-3.2-10.5-4.1c-4.3-1.2-8.7-1.5-13.1-1c-4,0.3-8.1,0.7-13.9-2.1c-7.6-3.6-10.9-9.2-13.9-14c-1.4-2.5-3-4.8-4.8-7
			c-8.8-10.1-22.9-11.5-45.1-12.7c-32.6-1.7-82.3-2.8-137.4,8c-7.4,1.5-22.8,4.5-28,14.5c-0.8,1.5-2.5,8.3-5,17.8
			c-0.7,2.5-1.2,4.7-1.7,6.7c-3.1,12.4-4.3,17.1-9.8,17.7C166.7,298,166.4,298,166.1,298z M316.5,204.3c-1.3,0-2.3,0-3.2,0
			c-9,0.3-56.2,2.2-101.8,11.6c-6.2,1.3-22.7,4.7-36.3,17.6c-3.8,3.6-12.6,12-14.7,25.1c-1.1,7-0.2,14.2,2.4,20.8
			c0.9,2.3,1.6,4,2.3,5.3c0.5-2,1.2-4.4,1.8-7c0.5-2,1.1-4.3,1.7-6.8c3.2-12.4,4.5-17.5,5.8-20c7.5-14.3,26-17.9,35-19.7
			c56.3-11,106.8-10,139.9-8.2c24.1,1.3,40.8,3.1,52.1,16.1c2.2,2.6,4.1,5.4,5.8,8.4c2.7,4.4,4.8,7.9,9.7,10.2
			c3.4,1.6,5.3,1.4,8.8,1.1c5.5-0.6,11.1-0.2,16.4,1.2c4.3,1.1,8.5,2.7,12.5,4.8c3.8,1.9,6.9,3.4,12.9,4c3.9,0.4,9.2,1,11.1-1.1
			c2.1-2.3,1.2-8.4-0.1-12c-0.9-2.3-2.2-4.5-3.9-6.3c-2-2.5-4.6-5.5-4.5-10.7c0-2.1,0.5-4.1,1.4-5.9c0.7-1.5,1.1-3.1,1.4-4.7l0,0
			c0.5-2.9,0.5-5.9,0-8.8c-1.1-4.7-18-8.9-32.3-9.7C371.8,206.3,331.4,204.3,316.5,204.3z"/>
		<path class="st0" d="M285.2,621.6l-32.4-8.1l16.7-57c3.6-17.4,4.2-35.4,1.7-53c-2.3-16-7-49.4-31-73.7
			c-24.7-25-37.1-37.6-46.7-43.4l-0.1-0.1c-6.6-4-10.4-8.7-11.2-14.2c-0.8-6.1,1.5-12.2,6.2-16.3c5.9-5.1,13.2-4.5,21.6-3.9
			c2.2,0.2,4.2,0.4,6,0.7c-3.1-4.6-8.3-14-5.7-22.4c2.3-7.5,9.4-11,14.7-13.1c25.9-10.2,62-6.8,63.6-6.6c73.4,7.3,83.2,6.5,90.8,2.4
			c1.7-0.9,8.4-3.8,29.2-12.8c6.4-2.8,10.6-4.6,16-4c3.7,0.5,7.2,1.7,10.4,3.6c3.1,1.6,4.7,2.3,6.8,1.9c1.3-0.4,2.5-1,3.6-1.9
			c2.7-2,3.5-4,4.6-6.6s2.6-6.2,6.2-8.7c5.8-4.1,14.6-4.1,20.9-0.1c9.1,5.9,8.8,17.6,8.6,19.9c-0.3,4.4-1.8,7.1-3.7,10.4
			c-1,1.9-2.4,4.2-3.9,7.5c-1.4,3-4,8.6-5,13.4c-1.2,5.4-0.2,8.7,1.4,14.2c1.3,4.2,2.4,8.4,3.1,12.7c1.6,9.7,3.9,22.9-2.2,35.4
			c-3.6,7.5-11.8,17.6-30,23.3c-11.2,3.5-19.2,2.3-36.8-0.5l-6.8-1.1c-48.4-7.5-60-6.2-70-3.7c-16.4,4.1-22,10.4-23.8,13.8
			c-3,5.4-2.5,11-1.2,22.2c1.2,10.1,3.4,16.4,5.7,23c2.5,7.2,5.1,14.7,6.1,26.7c0.5,5.7,0.5,11.4,0,17.1
			c-1.8,17.4-8.5,29.1-14.5,39.5c-1.4,2.5-2.8,4.9-4.1,7.3c-7.7,14.6-12.3,31.5-13.8,50.3L285.2,621.6z M265.3,606.3l10.9,2.7
			c2-17.8,6.9-34,14.4-48.3c1.3-2.6,2.8-5.1,4.3-7.6c5.7-10,11.7-20.3,13.2-35.6c0.5-5.1,0.5-10.2,0-15.3
			c-0.8-10.8-3.1-17.3-5.5-24.2c-3.1-8.1-5.1-16.5-6.2-25.1c-1.4-11.5-2.3-19.7,2.4-28.2c3.3-5.9,11.2-13.9,30.2-18.6
			c13.1-3.3,28.1-3.6,74,3.5l6.9,1.1c17,2.7,23.3,3.7,32.3,0.9c14.8-4.7,21.2-12.4,24-18.1c4.7-9.6,2.8-20.6,1.4-29.4
			c-0.7-3.9-1.6-7.7-2.8-11.5c-1.8-6.1-3.4-11.3-1.6-19.3c1.3-5.8,4.2-12.1,5.7-15.4c1.7-3.7,3.2-6.2,4.3-8.3
			c1.8-3.1,2.3-4.1,2.4-6.2c0-0.3,0.5-7.8-4-10.7c-2.8-1.8-7.2-1.9-9.7-0.1c-1.3,0.9-1.8,2-2.7,4.4c-1.3,3.1-3,7.3-8,10.9
			c-2.1,1.7-4.6,2.9-7.3,3.5c-5.8,1.3-10.1-1-13.6-2.8c-2.2-1.3-4.5-2.2-7-2.6c-2.6-0.3-4.8,0.6-11,3.2l0,0
			c-16.8,7.3-27,11.6-28.4,12.4c-9.9,5.4-19.6,6.5-96.5-1.2c-0.3,0-35.3-3.3-58.9,6c-1.9,0.8-7.6,3-8.8,6.7
			c-1.2,3.9,2,10.7,5.5,15.4c1,1.3,2,2.5,3.1,3.7c1.9,2,4.7,5,2.7,8.8c-2.2,4.2-6.8,3.3-11.3,2.4c-3.5-0.7-7-1.3-10.6-1.5
			c-7.6-0.6-11.7-0.8-14.4,1.5c-2,1.8-3.1,4.4-2.8,7.1c0.6,3.7,5.1,6.4,6.5,7.3l0.1,0.1c10.7,6.4,23.4,19.3,48.7,44.9
			c26.4,26.7,31.4,62.3,33.8,79.3c2.6,18.8,2,38-1.9,56.6l-0.1,0.4L265.3,606.3z"/>
		<path class="st0" d="M213,602.8c-5.9,0-13.5-3.2-22.5-9.4l-3.2-2.2l1.3-3.6c6.1-16.8,9.4-34.5,9.6-52.4
			c0.1-18.9,0.2-28.4-3.3-37.8c-0.6-1.5-1.2-3-1.8-4.5c-2.8-6.7-5.9-14.3-2.7-22.5c2.6-6.5,8.9-12.8,15.9-12.1s12.5,9.3,17.8,27.9
			c4.8,16.5,7.3,33.7,7.4,50.9c0,13.5-1.4,18.9-2.8,24.1c-1.3,4.9-2.5,9.4-2.6,21.8v0.7c0,5.4-0.1,12.8-5.7,16.8
			C218.4,602,215.7,602.8,213,602.8z M199.4,587.2c8.8,5.5,14,6.2,15.4,5.2s1.5-5.7,1.5-8.7v-0.7c0.1-13.7,1.6-19.1,3-24.3
			c1.3-4.8,2.5-9.3,2.4-21.5c-0.1-16.3-2.5-32.5-7-48.1c-4.9-16.8-8.6-20.2-9.3-20.7c-1.4,0.1-4.2,2.6-5.5,5.9
			c-1.7,4.2-0.1,8.4,2.6,15c0.6,1.6,1.3,3.2,1.9,4.9c4.1,11.2,4,21.3,3.9,41.4C208.1,552.9,205.1,570.5,199.4,587.2L199.4,587.2z"/>
		<path class="st0" d="M234.2,542.2c-1.1,0-2.1-0.2-3.1-0.6c-5.1-2.1-6-8.1-6.6-12.9c-2.3-16.1-3.3-26.1,3.6-28
			c3.5-1,5.7,1.3,7.2,2.8c0.5,0.5,1.2,1.2,2,1.9c3.2,2.9,7.6,6.8,11,6.8c2.3,0,5.2-2,7.8-5.3c1-1.3,1.9-2.8,2.5-4.4
			c1.2-2.5,2.8-5.8,7-6.5l0,0c5.2-0.8,8.9,3.8,10.2,5.7c2.4,3.5,2.5,6.8,2.6,10c0,0.5,0,1,0.1,1.5c0.2,3.5,0.7,7,1.4,10.4
			c0.9,4.6,1.8,9-1.8,13c-1.3,1.5-3,2.6-4.9,3.2c-4.2,1.3-7.4-0.4-10-1.8c-1.3-0.7-2.6-1.3-4-1.8c-1.7-0.6-5.8-2.1-9.3-0.9
			c-0.6,0.2-1.3,0.6-1.8,1c-1.8,1.3-3.8,2.4-5.9,3.3C239.3,541.1,236.8,542.2,234.2,542.2z M232.9,514.9c0.3,4.4,1.1,9.7,1.5,12.4
			c0.2,1.6,0.5,3.1,0.9,4.6c0.8-0.3,2-0.8,2.9-1.3c1.5-0.7,2.9-1.5,4.3-2.4c1.3-1,2.7-1.7,4.3-2.3c6.8-2.3,13.4,0,15.9,0.9
			c1.8,0.7,3.6,1.5,5.3,2.5c0.7,0.4,1.5,0.8,2.3,1.1c0.2-0.1,0.3-0.2,0.4-0.4c0.2-0.6-0.2-2.7-0.6-4.4c-0.8-3.9-1.4-7.9-1.6-11.8
			c0-0.6,0-1.2-0.1-1.7c-0.1-2.7-0.2-3.7-0.9-4.7l-0.1-0.2c-1,2.1-2.1,4-3.5,5.9c-4.6,5.8-10.1,9-15.6,9.1
			C242.2,522.3,237,518.5,232.9,514.9z"/>
		<path class="st0" d="M445.8,291.4c-1.8,0-3.5-0.5-5-1.6c-2.6-1.9-3-4.5-3.3-6.2c-0.1-0.7-0.2-1.3-0.4-1.9c-0.3-1-0.7-1.8-1.3-2.6
			c-0.6-1-1.5-2.3-2.7-4.4c-1.4-2.4-2.6-4.9-3.7-7.4l-0.6-1l8.7-5l1,1.8c1,2.3,2.1,4.5,3.4,6.7c1,1.8,1.7,2.9,2.3,3.8
			c0.3,0.5,0.7,1,0.9,1.5l0.1-6.8l10,0.1L455,276c1.7,5.8,0,11.6-4.3,14.1C449.2,290.9,447.5,291.4,445.8,291.4z"/>
		<path class="st0" d="M442.3,306.4l-0.7-1.7c-0.6-1.6-1.2-3.1-1.8-4.7c-0.2,0.4-0.4,0.8-0.6,1.3l-1.9,4.8l-9.3-3.7l2.1-5.3
			c2.8-5.9,6.3-12,11.9-10.8c3.3,0.7,4.4,3.5,5.3,5.7c1.3,3,2.5,6.1,3.7,9.2l0.6,1.7L442.3,306.4z"/>
		<path class="st0" d="M213.3,330.5c-2.3,0-4.7-0.5-6.8-1.5c-9-4.3-10.9-16-10-22.3c1.3-8.7,10.4-17,27.2-24.5
			c12.9-5.8,21.9-7.4,31.5-9.1c7.2-1.2,14.4-2.7,21.4-4.7c11.5-3.3,15.9-5.8,20.2-8.3s8.9-5.1,19.5-7.9c30.8-8,56.8-3.1,67.9-1
			c9.3,1.8,12.3,3.2,15.9,5c3.1,1.5,6.7,3.2,16.9,5.9l0.2,0.1c4.1,1.1,11.8,3.1,14.8,10c1.7,4,2,10.3-1.5,15c-1,1.3-2.2,2.3-3.7,3.1
			c-0.4,0.2-0.8,0.5-1.1,0.8c-1,1.3-1.5,3-1.4,4.7l0.2,5.5l-10,0.3l-0.2-5.7v-0.1c0-4.7,1.4-8.6,4-11.4c1-1.1,2.2-2,3.4-2.7
			c0.6-0.4,0.7-0.4,0.8-0.6c0.8-1.5,0.9-3.3,0.3-4.9c-1.1-2.4-5.5-3.6-8.2-4.3l-0.3-0.1c-11.1-2.9-15.3-5-18.7-6.6
			c-3.2-1.5-5.4-2.6-13.4-4.1c-10.4-2-34.9-6.7-63.5,0.8c-9.3,2.4-12.9,4.5-17.1,6.9c-4.6,2.7-9.8,5.7-22.5,9.3
			c-7.4,2.1-14.9,3.7-22.4,4.9c-9.3,1.6-17.3,3-29.1,8.3c-18.8,8.5-21.2,15.1-21.4,16.9c-0.6,3.8,0.9,10.2,4.4,11.9
			c1.1,0.5,2.3,0.6,3.5,0.5l5.8-0.7l1.2,9.9l-5.8,0.7C214.8,330.5,214,330.5,213.3,330.5z"/>
	</g>
	<g id="Titel">
		<path class="st0" d="M408.3,594l-3.2-10.4h-15.9l-3.2,10.4h-9.9l15.4-43.7h11.3l15.4,43.7H408.3z M403,575.9
			c-2.9-9.4-4.6-14.7-4.9-15.9c-0.4-1.2-0.6-2.2-0.8-2.9c-0.7,2.5-2.5,8.8-5.6,18.8H403z"/>
		<path class="st0" d="M462.4,594h-11.7l-18.9-32.9h-0.3c0.4,5.8,0.6,10,0.6,12.5V594h-8.3v-43.6h11.7l18.9,32.6h0.2
			c-0.3-5.7-0.4-9.7-0.4-12v-20.6h8.3L462.4,594z"/>
		<path class="st0" d="M500,594l-3.2-10.4H481l-3.2,10.4h-9.9l15.4-43.7h11.3L510,594H500z M494.7,575.9c-2.9-9.4-4.6-14.7-4.9-15.9
			c-0.4-1.2-0.6-2.2-0.8-2.9c-0.7,2.5-2.5,8.8-5.6,18.8H494.7z"/>
		<path class="st0" d="M532.2,594H523v-35.9h-11.8v-7.7h32.9v7.7h-11.8L532.2,594z"/>
		<path class="st0" d="M590.3,572.2c0,7.2-1.8,12.7-5.4,16.6c-3.6,3.9-8.7,5.8-15.4,5.8c-6.7,0-11.8-1.9-15.4-5.8
			c-3.6-3.9-5.4-9.4-5.4-16.7c0-7.2,1.8-12.8,5.4-16.6c3.6-3.8,8.7-5.7,15.4-5.7c6.7,0,11.8,1.9,15.4,5.8
			C588.6,559.4,590.3,565,590.3,572.2z M558.5,572.2c0,4.9,0.9,8.5,2.8,11c1.8,2.5,4.6,3.7,8.3,3.7c7.4,0,11.1-4.9,11.1-14.7
			c0-9.8-3.7-14.7-11-14.7c-3.7,0-6.4,1.2-8.3,3.7S558.5,567.4,558.5,572.2L558.5,572.2z"/>
		<path class="st0" d="M617.8,594l-10.5-34.2H607c0.4,7,0.6,11.6,0.6,13.9V594h-8.3v-43.6h12.6l10.3,33.3h0.2l10.9-33.3h12.6V594
			h-8.6v-20.6c0-1,0-2.1,0-3.4s0.2-4.6,0.4-10.1h-0.3L626.1,594L617.8,594z"/>
		<path class="st0" d="M656.8,594v-43.6h9.2V594L656.8,594z"/>
		<path class="st0" d="M702.1,594H677v-43.6h25.1v7.6h-15.8v9.6H701v7.6h-14.7v11.2h15.8V594z"/>
	</g>
</g>
<g id="Resonatoren">
	<path id="Icon_Helmholtz" class="st0" d="M1182.1,404.2c-10.7,0-21.4-1.2-31.8-3.8c-46.2-12-70.9-45.5-81.5-64.5
		c-9.1-16.2-23.2-49.5-15.3-89.6c3.1-15.7,11.1-39.3,31.4-62.1c7.6-8.5,14.1-15.8,25.4-22c10.3-5.7,32.7-14.9,50.8-19.9l0.2-0.1
		c2.6-0.7,6.6-1.8,8.5-4.8c1.8-2.9,2.9-6.3,3.1-9.7c0-0.3,0-0.6,0-0.9c-0.1-1.9-0.1-4.7,2.1-7.2c1.9-1.9,4.5-3,7.2-2.9l0,0
		c2.7-0.1,5.3,1,7.2,2.9l0,0c1.6,1.9,2.4,4.4,2.1,6.9c0,0.3,0,0.7,0,1.1c0.1,3.5,1.8,7.2,5,10.8c1.7,1.8,3.8,3.3,6.1,4.2
		c13,6.1,19.4,9.1,24.8,10.6c14.4,3.9,43.9,17.4,61.4,37.2c24.7,27.9,23.5,65.4,23,83.4c-0.2,20.1-4.9,39.9-13.7,58
		c-11.8,23.7-30.3,43.4-53.3,56.5C1225.6,398.9,1204,404.3,1182.1,404.2z M1182.2,133.1c-0.8,3.4-2.1,6.7-4,9.7
		c-4,6.2-10.7,8.1-14.3,9.1l-0.2,0c-17.4,4.8-38.8,13.6-48.6,19s-15.5,11.8-22.7,19.9c-18.9,21.2-26.3,42.9-29.1,57.4
		c-7.3,37,5.8,67.7,14.2,82.8c9.8,17.6,32.7,48.7,75.3,59.7c10.7,2.8,48.7,10.2,87.2-11.2c21.2-12.1,38.3-30.3,49.2-52.2
		c8.2-16.8,12.5-35.2,12.7-53.8c0.5-16.8,1.6-51.6-20.5-76.5c-16.7-18.8-45.3-31.2-56.6-34.2c-6.2-1.7-13-4.8-26.4-11.2
		c-3.6-1.5-6.8-3.8-9.4-6.6C1185.8,141.6,1183.5,137.5,1182.2,133.1z"/>
	<path id="Icon_Schaefer" class="st0" d="M942.5,520.3h-0.6c-5.1,0-6.7-0.1-10.6-0.2c-3.4-0.1-8.6-0.3-19.3-0.5
		c-2.9-0.1-28.9-0.9-40.2-8.5c-1.5-1-6-4.1-6.3-9.4c-0.3-4.2,2.3-7.2,3.2-8.4c1.2-1.5,2.7-2.7,4.3-3.6l-4.8-385.3l-8.3-8.3l9-9
		l43.9-3.9c1.8-42.4,2.4-66.6,1.9-71.9c-0.3-2.4,0.2-4.8,1.5-6.8c4.4-6.5,15.1-4.7,22.7-2.7l3.5,0.9l5.5,80.5
		c27.9,2,36.7,2.1,39.1,1.8c2.6-0.5,5.2,0.2,7.3,1.8c3.7,3,4.5,9,1.8,13.4c-0.9,1.4-2,2.6-3.4,3.5L992,489.4l-0.1,0.5
		c-0.1,0.3-0.1,0.7-0.1,1c0.3,0.1,0.8,0.2,1.2,0.3c1.7,0.5,4.6,1.2,6.5,4c3.1,4.7,0.4,10.4-0.5,12.1c-4.2,7.8-14.3,9.3-20.3,10.2
		C966.7,519.2,954.6,520.2,942.5,520.3z M875.5,501.1c0.5,0.7,1.2,1.3,2,1.7c7.5,5.1,27.7,6.6,34.8,6.8c10.8,0.3,16,0.4,19.4,0.5
		c3.9,0.1,5.4,0.2,10.4,0.2c11.8-0.1,23.6-1,35.3-2.7c5.4-0.8,11.3-1.9,13-5c0.3-0.5,0.5-1,0.6-1.6l-0.4-0.1c-2.7-0.5-5.2-2-6.9-4.2
		c-1.6-2.4-2.2-5.3-1.6-8.2l0.7-392.3l4-0.8c0.3-0.1,0.6-0.2,0.9-0.5l0,0c-3.7,0.3-12.8,0.2-44.7-2.1l-4.3-0.3l-5.6-81.8
		c-5.3-1-7.6-0.7-8.3-0.5l0,0c0.6,6.2,0,30.9-2.1,77.8l-0.2,4.4l-47.8,4.3l3.6,3.6l4.9,396.6l-3.8,1c-1.2,0.3-2.2,0.9-3,1.8
		C876,500.2,875.7,500.6,875.5,501.1L875.5,501.1z"/>
	<g id="Titel_1_">
		<path class="st0" d="M1074,507.3V524h-9.2v-43.6h12.7c5.9,0,10.3,1.1,13.1,3.2c2.8,2.2,4.3,5.4,4.3,9.8c0,2.4-0.7,4.8-2.1,6.8
			c-1.5,2.1-3.6,3.7-6,4.7c6.6,9.8,10.8,16.1,12.8,19h-10.3l-10.4-16.7L1074,507.3z M1074,499.8h3c2.9,0,5.1-0.5,6.5-1.5
			c1.4-1.1,2.2-2.8,2.1-4.6c0.2-1.8-0.7-3.4-2.1-4.4c-1.4-0.9-3.6-1.3-6.6-1.3h-2.8V499.8z"/>
		<path class="st0" d="M1130,524H1105v-43.6h25.1v7.6h-15.9v9.6h14.8v7.6h-14.7v11.2h15.9L1130,524z"/>
		<path class="st0" d="M1164.8,512c0.2,3.6-1.4,7.1-4.2,9.3c-2.8,2.3-6.8,3.4-11.8,3.4c-4.3,0.1-8.5-0.8-12.3-2.6v-8.6
			c2.4,1.1,4.9,2,7.5,2.8c1.8,0.5,3.7,0.8,5.6,0.8c1.6,0.1,3.3-0.3,4.7-1.2c1.1-0.8,1.7-2.1,1.6-3.5c0-0.8-0.2-1.6-0.7-2.3
			c-0.6-0.8-1.3-1.4-2.1-1.9c-1.8-1.1-3.7-2.1-5.6-3c-2.1-0.9-4.2-2.1-6-3.6c-1.3-1.1-2.4-2.5-3.2-4c-0.8-1.7-1.2-3.5-1.2-5.4
			c-0.2-3.5,1.3-6.8,3.9-9.1c2.6-2.2,6.2-3.3,10.8-3.3c2.2,0,4.4,0.3,6.5,0.8c2.2,0.6,4.4,1.3,6.4,2.3l-3,7.2
			c-1.9-0.8-3.8-1.5-5.8-2c-1.5-0.4-3-0.6-4.5-0.6c-1.4-0.1-2.9,0.3-4,1.2c-0.9,0.8-1.4,2-1.4,3.2c0,0.8,0.2,1.5,0.6,2.1
			c0.5,0.7,1.1,1.3,1.8,1.8c1.9,1.1,3.8,2.1,5.9,3c4.1,2,6.9,3.9,8.4,5.8C1164.1,506.8,1164.9,509.4,1164.8,512z"/>
		<path class="st0" d="M1212.2,502.2c0,7.2-1.8,12.7-5.4,16.6c-3.6,3.9-8.7,5.8-15.4,5.8c-6.7,0-11.8-1.9-15.4-5.8
			c-3.6-3.9-5.4-9.4-5.4-16.7c0-7.2,1.8-12.8,5.4-16.6c3.6-3.8,8.7-5.7,15.4-5.7c6.7,0,11.8,1.9,15.4,5.8
			C1210.5,489.4,1212.3,495,1212.2,502.2z M1180.4,502.2c0,4.9,0.9,8.5,2.8,11c1.8,2.5,4.6,3.7,8.3,3.7c7.4,0,11.1-4.9,11.1-14.7
			c0-9.8-3.7-14.7-11-14.7c-3.7,0-6.4,1.2-8.3,3.7S1180.4,497.4,1180.4,502.2z"/>
		<path class="st0" d="M1259.9,524h-11.7l-18.9-32.9h-0.3c0.4,5.8,0.6,10,0.6,12.5V524h-8.3v-43.6h11.6l18.9,32.6h0.2
			c-0.3-5.7-0.4-9.7-0.4-12v-20.6h8.3L1259.9,524z"/>
		<path class="st0" d="M1297.5,524l-3.2-10.4h-15.9l-3.1,10.4h-10l15.4-43.7h11.3l15.4,43.7H1297.5z M1292.1,505.9
			c-2.9-9.4-4.6-14.7-4.9-15.9c-0.4-1.2-0.6-2.2-0.8-2.9c-0.7,2.5-2.5,8.8-5.6,18.8H1292.1z"/>
		<path class="st0" d="M1329.7,524h-9.2v-35.9h-11.8v-7.7h32.9v7.7h-11.8L1329.7,524z"/>
		<path class="st0" d="M1387.8,502.2c0,7.2-1.8,12.7-5.4,16.6c-3.6,3.9-8.7,5.8-15.4,5.8c-6.7,0-11.8-1.9-15.4-5.8
			c-3.6-3.9-5.4-9.4-5.4-16.7c0-7.2,1.8-12.8,5.4-16.6c3.6-3.8,8.7-5.7,15.4-5.7c6.7,0,11.8,1.9,15.4,5.8
			C1386,489.4,1387.8,495,1387.8,502.2z M1356,502.2c0,4.9,0.9,8.5,2.8,11c1.9,2.5,4.6,3.7,8.3,3.7c7.3,0,11-4.9,11.1-14.7
			c0-9.8-3.6-14.7-11-14.7c-3.7,0-6.4,1.2-8.3,3.7C1356.9,493.7,1356,497.4,1356,502.2L1356,502.2z"/>
		<path class="st0" d="M1406,507.3V524h-9.2v-43.6h12.7c5.9,0,10.3,1.1,13.1,3.2c2.8,2.2,4.3,5.4,4.3,9.8c0,2.4-0.7,4.8-2.1,6.8
			c-1.5,2.1-3.6,3.7-6,4.7c6.6,9.8,10.8,16.1,12.8,19h-10.3l-10.4-16.7H1406z M1406,499.8h3c2.9,0,5.1-0.5,6.5-1.5
			c1.4-1.1,2.2-2.8,2.1-4.6c0.2-1.8-0.7-3.4-2.1-4.4c-1.4-0.9-3.6-1.3-6.6-1.3h-2.8L1406,499.8z"/>
		<path class="st0" d="M1462.2,524h-25.1v-43.6h25.1v7.6h-15.9v9.6h14.8v7.6h-14.8v11.2h15.9V524z"/>
		<path class="st0" d="M1509.9,524h-11.7l-18.9-32.9h-0.2c0.4,5.8,0.6,10,0.6,12.5V524h-8.3v-43.6h11.6l18.9,32.6h0.2
			c-0.3-5.7-0.4-9.7-0.4-12v-20.6h8.3L1509.9,524z"/>
	</g>
</g>
<g id="Sprachsynthese">
	<g id="Icon_1_">
		<path class="st0" d="M1228,1058.7h-29.1v-16.5h29.1v-29.3h16.5v29.3h29.1v16.5h-29.1v29H1228V1058.7z"/>
		<path class="st0" d="M1362.8,1132.8V1114h40.4v18.8H1362.8z"/>
		
			<rect x="1200.9" y="1079.3" transform="matrix(0.4782 -0.8782 0.8782 0.4782 -265.6704 1721.4305)" class="st0" width="230" height="10"/>
	</g>
	<g id="Titel_2_">
		<path class="st0" d="M1006.4,1264c0.2,3.6-1.4,7.1-4.2,9.3c-2.8,2.3-6.8,3.4-11.8,3.4c-4.3,0.1-8.5-0.8-12.3-2.6v-8.6
			c2.4,1.1,4.9,2,7.5,2.8c1.8,0.5,3.7,0.8,5.6,0.8c1.6,0.1,3.3-0.3,4.7-1.2c1.1-0.8,1.7-2.1,1.6-3.5c0-0.8-0.2-1.6-0.7-2.3
			c-0.6-0.8-1.3-1.4-2.1-1.9c-1.8-1.1-3.7-2.1-5.6-2.9c-2.1-0.9-4.2-2.1-6-3.6c-1.3-1.1-2.4-2.5-3.2-4c-0.8-1.7-1.2-3.5-1.2-5.4
			c-0.2-3.5,1.3-6.8,3.9-9.1c2.6-2.2,6.2-3.3,10.8-3.3c2.2,0,4.4,0.3,6.5,0.8c2.2,0.6,4.4,1.3,6.4,2.3l-3,7.2
			c-1.9-0.8-3.8-1.5-5.8-2c-1.5-0.4-3-0.6-4.5-0.6c-1.4-0.1-2.9,0.3-4,1.2c-0.9,0.8-1.4,2-1.4,3.2c0,0.7,0.2,1.5,0.6,2.1
			c0.5,0.7,1.1,1.3,1.8,1.8c1.9,1.1,3.8,2.1,5.9,3c4.1,1.9,6.9,3.9,8.4,5.9C1005.7,1258.8,1006.5,1261.4,1006.4,1264z"/>
		<path class="st0" d="M1044.4,1246.1c0,4.7-1.5,8.3-4.4,10.8s-7.1,3.7-12.5,3.7h-4v15.5h-9.2v-43.5h13.9c5.3,0,9.3,1.1,12.1,3.4
			C1042.9,1238.2,1044.3,1241.6,1044.4,1246.1z M1023.5,1253h3c2.8,0,5-0.6,6.4-1.7c1.4-1.2,2.2-3,2.1-4.9c0.2-1.8-0.5-3.5-1.8-4.8
			c-1.2-1-3-1.5-5.6-1.6h-4.2L1023.5,1253z"/>
		<path class="st0" d="M1061.8,1259.3v16.7h-9.2v-43.5h12.7c5.9,0,10.3,1.1,13.1,3.2s4.3,5.4,4.3,9.8c0,2.4-0.7,4.8-2.1,6.8
			c-1.5,2.1-3.6,3.7-6,4.7c6.6,9.8,10.8,16.1,12.8,19h-10.3l-10.4-16.7L1061.8,1259.3z M1061.8,1251.8h3c2.9,0,5.1-0.5,6.5-1.5
			c1.4-1.1,2.2-2.8,2.1-4.6c0.2-1.8-0.7-3.4-2.1-4.4c-1.4-0.9-3.6-1.3-6.6-1.3h-2.8L1061.8,1251.8z"/>
		<path class="st0" d="M1119.5,1276l-3.2-10.4h-15.9l-3.1,10.4h-10l15.4-43.7h11.3l15.4,43.7H1119.5z M1114.1,1257.9
			c-2.9-9.4-4.6-14.7-4.9-15.9c-0.4-1.2-0.6-2.2-0.8-2.9c-0.7,2.5-2.5,8.8-5.6,18.8L1114.1,1257.9z"/>
		<path class="st0" d="M1153.4,1239.6c-3.2-0.1-6.2,1.3-8.1,3.9c-1.9,2.6-2.9,6.3-2.9,10.9c0,9.7,3.6,14.6,10.9,14.6
			c3.8-0.1,7.6-0.9,11.1-2.3v7.7c-3.8,1.5-7.9,2.3-12,2.2c-6.3,0-11.2-1.9-14.5-5.8c-3.4-3.8-5-9.4-5-16.5
			c-0.1-4.1,0.8-8.2,2.5-11.9c1.5-3.3,4-6,7.1-7.8c3.3-1.9,7.1-2.8,10.9-2.7c4.4,0,8.8,1.1,12.8,3.1l-3,7.5c-1.6-0.8-3.2-1.4-4.9-2
			C1156.7,1239.9,1155.1,1239.6,1153.4,1239.6z"/>
		<path class="st0" d="M1209.5,1276h-9.2v-18.8H1183v18.8h-9.2v-43.5h9.2v17.1h17.2v-17.1h9.2V1276z"/>
		<path class="st0" d="M1246.2,1264c0.2,3.6-1.4,7.1-4.2,9.3c-2.8,2.3-6.8,3.4-11.8,3.4c-4.3,0.1-8.5-0.8-12.3-2.6v-8.6
			c2.4,1.1,4.9,2,7.5,2.8c1.8,0.5,3.7,0.8,5.6,0.8c1.6,0.1,3.3-0.3,4.7-1.2c1.1-0.8,1.7-2.1,1.6-3.5c0-0.8-0.2-1.6-0.7-2.3
			c-0.6-0.8-1.3-1.4-2.1-1.9c-1.8-1.1-3.7-2.1-5.6-2.9c-2.1-0.9-4.2-2.1-6-3.6c-1.3-1.1-2.4-2.5-3.2-4c-0.8-1.7-1.2-3.5-1.2-5.4
			c-0.2-3.5,1.3-6.8,3.9-9.1c2.6-2.2,6.2-3.3,10.8-3.3c2.2,0,4.4,0.3,6.5,0.8c2.2,0.6,4.4,1.3,6.4,2.3l-3,7.2
			c-1.9-0.8-3.8-1.5-5.8-2c-1.5-0.4-3-0.6-4.5-0.6c-1.4-0.1-2.9,0.3-4,1.2c-0.9,0.8-1.4,2-1.4,3.2c0,0.7,0.2,1.5,0.6,2.1
			c0.5,0.7,1.1,1.3,1.8,1.8c1.9,1.1,3.8,2.1,5.9,3c4.1,1.9,6.9,3.9,8.4,5.9C1245.5,1258.8,1246.3,1261.4,1246.2,1264z"/>
		<path class="st0" d="M1267.6,1250.4l9.1-17.9h9.9l-14.4,26.6v17h-9.2v-16.7l-14.4-26.9h10L1267.6,1250.4z"/>
		<path class="st0" d="M1330.8,1276H1319l-18.9-32.9h-0.3c0.4,5.8,0.6,10,0.6,12.4v20.5h-8.3v-43.5h11.6l18.9,32.6h0.2
			c-0.3-5.7-0.4-9.7-0.4-12v-20.6h8.3V1276z"/>
		<path class="st0" d="M1358.5,1276h-9.2v-35.9h-11.8v-7.7h32.9v7.7h-11.8L1358.5,1276z"/>
		<path class="st0" d="M1412.7,1276h-9.2v-18.8h-17.3v18.8h-9.2v-43.5h9.2v17.1h17.3v-17.1h9.2V1276z"/>
		<path class="st0" d="M1448.8,1276h-25.1v-43.5h25.1v7.6H1433v9.6h14.8v7.6H1433v11.2h15.9V1276z"/>
		<path class="st0" d="M1483.6,1264c0.2,3.6-1.4,7.1-4.3,9.3c-2.8,2.3-6.8,3.4-11.8,3.4c-4.3,0.1-8.5-0.8-12.3-2.6v-8.6
			c2.4,1.1,4.9,2,7.5,2.8c1.8,0.5,3.7,0.8,5.6,0.8c1.6,0.1,3.3-0.3,4.7-1.2c1.1-0.8,1.7-2.1,1.6-3.5c0-0.8-0.2-1.6-0.7-2.3
			c-0.6-0.8-1.3-1.4-2.1-1.9c-1.8-1.1-3.7-2.1-5.6-2.9c-2.2-0.9-4.2-2.1-6-3.6c-1.3-1.1-2.4-2.5-3.2-4c-0.8-1.7-1.2-3.5-1.2-5.4
			c-0.2-3.5,1.3-6.8,3.9-9.1c2.6-2.2,6.2-3.3,10.8-3.3c2.2,0,4.4,0.3,6.5,0.8c2.2,0.6,4.4,1.3,6.4,2.3l-3,7.2
			c-1.9-0.8-3.8-1.5-5.8-2c-1.5-0.4-3-0.6-4.5-0.6c-1.4-0.1-2.9,0.3-4,1.2c-0.9,0.8-1.4,2-1.4,3.2c0,0.7,0.2,1.5,0.6,2.1
			c0.5,0.7,1.1,1.3,1.8,1.8c1.9,1.1,3.8,2.1,5.9,3c4.1,1.9,6.9,3.9,8.4,5.9C1482.9,1258.8,1483.7,1261.4,1483.6,1264z"/>
		<path class="st0" d="M1516.6,1276h-25.1v-43.5h25.1v7.6h-15.8v9.6h14.7v7.6h-14.7v11.2h15.8V1276z"/>
	</g>
</g>
<g id="Kempelen">
	<g id="Icon_2_">
		<polygon class="st0" points="572.4,1024.1 413.7,977.7 416.5,968.1 572.3,1013.6 672.6,982 675.6,991.6 		"/>
		<path class="st0" d="M630.7,1239.8l-411.5-167.7l49.7-26.2l-36.3-17.1l25-7.1l-31.9-13.4l41.5-6.4l-28.7-20.6l24-5.4l-20.6-30
			l125.8-21.1l44.3,39.5l-6.7,7.5l-40.8-36.3L259,953.1l20.1,29.2l-16.7,3.8l30.5,21.9l-30.6,4.7l25.4,10.6l-26.8,7.7l30.3,14.3
			l-48.4,25.6l387.8,158l104.3-45.9l-61-32.4l-103.2,43.8l-1.9-0.8l-158.6-62.3v-163l109.6-21.3l159.5,34.4l-0.9,160.2l79.5,42.3
			L630.7,1239.8z M420.1,1124.6l150.3,59.1l97.8-41.5l0.9-152.6l-149.5-32.2l-99.5,19.4V1124.6z"/>
		<path class="st0" d="M466.8,1059.3c-3.8,0-7.5-0.9-10.8-2.8c-8.5-5-10.2-14.5-11.6-22.9c-0.8-4.7-3.3-19.1,5.3-33.1
			c2.7-4.5,6.3-8.4,10.5-11.5l0.3-0.2l9.2-5.1l21.3,6.2l2.9,8.9c2.8,8.4,3.8,17.3,3,26.1v0.5c-0.8,8.8-1.9,19.7-11.1,27
			C480.3,1056.7,473.7,1059.1,466.8,1059.3z M465.9,997.1c-3.1,2.4-5.7,5.3-7.8,8.6c-6.7,10.8-4.6,22.3-4,26.1
			c1.3,7.1,2.3,13.3,6.9,16c5.3,3.2,13.4,0.6,18.4-3.3c5.9-4.7,6.6-12.5,7.3-20.1l0.1-0.5c0.7-7.4-0.2-14.9-2.5-22l0,0L483,998
			l-12.2-3.6L465.9,997.1z"/>
		<path class="st0" d="M630.4,1110.4c-6.7,0-12.2-3.5-14.6-5c-11.7-7.6-14.8-20.6-16-26.2c-1.5-6.5-5.4-23.6,5.2-33.5
			c3.9-3.5,9-5.6,14.2-6l0,0c7.2-0.4,12.4,2.9,15,4.4c10.8,6.8,14.6,17.9,16,22.1c1.6,4.9,5,15.1,0.9,26.4c-1.3,3.5-5.1,14-15.3,17
			C634.1,1110.2,632.3,1110.4,630.4,1110.4z M620.4,1049.7h-0.6l0,0c-2.9,0.2-5.7,1.4-8,3.3c-6.4,5.9-3.4,19-2.2,23.9
			c1.2,5.1,3.4,14.7,11.7,20c2.1,1.3,6.9,4.5,11.6,3.1c5.3-1.6,7.8-8.3,8.7-10.8c3-8.1,0.5-15.4-1-19.8c-1.2-3.6-4-11.9-11.8-16.8
			C627,1051.5,624.1,1049.7,620.4,1049.7L620.4,1049.7z"/>
		
			<rect x="337.5" y="936.1" transform="matrix(0.4785 -0.8781 0.8781 0.4785 -716.0264 831.9775)" class="st0" width="10" height="165.4"/>
		
			<rect x="341.7" y="960.9" transform="matrix(0.4093 -0.9124 0.9124 0.4093 -740.2213 928.212)" class="st0" width="10" height="149.7"/>
		
			<rect x="338.4" y="971.9" transform="matrix(0.328 -0.9447 0.9447 0.328 -758.9731 1028.4777)" class="st0" width="10" height="151.7"/>
		
			<rect x="341.7" y="993.7" transform="matrix(0.2531 -0.9674 0.9674 0.2531 -770.6517 1130.3643)" class="st0" width="10" height="141.2"/>
		
			<rect x="406.5" y="965.9" transform="matrix(0.6521 -0.7581 0.7581 0.6521 -592.6383 649.6641)" class="st0" width="10" height="9.3"/>
		<path class="st0" d="M576.1,1117.3H576c-4.2-0.1-8-2.3-11.3-6.6c-2.6-3.5-3.9-7.8-3.8-12.1c-0.3-4.9,1-9.8,3.6-14
			c2.9-4.6,9.9-11.7,17.6-9.5l0,0c2.5,0.8,4.6,2.3,6.2,4.4c2.2,2.6,3.5,6.3,3.9,11.1s1,10.6-2.5,16.8
			C585,1115.5,579.8,1117.3,576.1,1117.3z M579.1,1084.7c-1.1,0-4.2,2-6.3,5.3c-1.5,2.5-2.2,5.3-2,8.2c0.1,1.9,0.2,4.3,1.8,6.4
			c1.8,2.3,2.9,2.7,3.5,2.7s2.3-0.3,4.8-4.8c1.9-3.4,1.6-6.9,1.2-11c-0.2-1.9-0.6-4.3-1.6-5.6c-0.3-0.5-0.8-0.9-1.2-1.2
			L579.1,1084.7z"/>
		<path class="st0" d="M536.4,1121.4l-17.8-10.9l-64.9-16.5l-1.2-40.9l8.4,2.1l-0.2-1.5l48.1-6.6l69,15.3l-57,18.1l-57.9-14.5
			l0.6,20.2l59.1,15l15.5,9.5l15.1-3.9c-2.2-1-5-2.2-8.5-3.7l-0.8-0.3l-0.7-0.6c-3.1-2.8-5-6.6-5.3-10.7c-0.4-5.3,2.1-12.3,8.5-15.1
			c3.7-1.6,6.9-1,9.5-0.5l0.8,0.2c5.3,0.9,10.6,0.9,15.9,0l1.6,9.9c-6.4,1.1-12.9,1.1-19.3,0l-0.9-0.2c-2-0.4-2.9-0.5-3.6-0.2
			c-1.9,0.8-2.7,3.3-2.6,5.3c0.1,1.3,0.7,2.5,1.6,3.5c16.7,6.9,22,10.2,20.5,15.8c-0.8,2.7-3,4.2-6.8,4.5L536.4,1121.4z
			 M482.9,1060.7l37.5,9.4l18.9-6l-30.9-6.9L482.9,1060.7z"/>
		<rect x="543.3" y="1058.6" class="st0" width="10" height="16.7"/>
		
			<rect x="534.1" y="1059" transform="matrix(0.9536 -0.3012 0.3012 0.9536 -296.701 211.9843)" class="st0" width="10" height="18.4"/>
		
			<rect x="508" y="1050.4" transform="matrix(0.9841 -0.1774 0.1774 0.9841 -178.7461 111.9691)" class="st0" width="57.3" height="10"/>
		<path class="st0" d="M274.8,942.1l-10-0.1l1.8-160.7c-0.8-10.4,2.2-20.7,8.4-29.1c5.3-7,12.7-12.1,21-14.7
			c4.8-1.5,16.2-5,27.9,1.3s15.5,18.2,16.4,21.7l0.1,0.7l1.9,17l-2.8,154.8l-10-0.2l2.8-154.2l-1.8-16c-0.7-2.8-3.5-10.8-11.3-15
			c-8.1-4.3-16.3-1.8-20.2-0.6c-6.4,2-11.9,5.9-16,11.2c-4.8,6.5-7.1,14.5-6.4,22.5v0.2v0.2L274.8,942.1z"/>
		<path class="st0" d="M301.3,814.8c-12.7,0-22.6-13.2-22.6-30s9.9-30,22.6-30s22.6,13.2,22.6,30S314,814.8,301.3,814.8z
			 M301.3,764.8c-6.8,0-12.6,9.2-12.6,20s5.8,20,12.6,20s12.6-9.2,12.6-20S308.1,764.8,301.3,764.8L301.3,764.8z"/>
	</g>
	<g id="Titel_3_">
		<path class="st0" d="M28.4,1269c0.2,3.6-1.4,7.1-4.2,9.3c-2.8,2.3-6.8,3.4-11.8,3.4c-4.3,0.1-8.5-0.8-12.3-2.6v-8.6
			c2.4,1.1,4.9,2,7.5,2.8c1.8,0.5,3.7,0.8,5.6,0.8c1.6,0.1,3.3-0.3,4.7-1.2c1.1-0.8,1.7-2.1,1.6-3.5c0-0.8-0.2-1.6-0.7-2.3
			c-0.6-0.8-1.3-1.4-2.1-1.9c-1.8-1.1-3.7-2.1-5.6-2.9c-2.1-0.9-4.2-2.1-6-3.6c-1.3-1.1-2.4-2.5-3.2-4c-0.8-1.7-1.2-3.5-1.2-5.4
			c-0.2-3.5,1.3-6.8,3.9-9.1c2.6-2.2,6.2-3.3,10.8-3.3c2.2,0,4.4,0.3,6.5,0.8c2.2,0.6,4.4,1.3,6.4,2.3l-3,7.2
			c-1.9-0.8-3.8-1.5-5.8-2c-1.5-0.4-3-0.6-4.5-0.6c-1.4-0.1-2.9,0.3-4,1.2c-0.9,0.8-1.4,2-1.4,3.2c0,0.7,0.2,1.5,0.6,2.1
			c0.5,0.7,1.1,1.3,1.8,1.8c1.9,1.1,3.8,2.1,5.8,3c4.1,1.9,6.9,3.9,8.4,5.9C27.7,1263.8,28.5,1266.4,28.4,1269z"/>
		<path class="st0" d="M66.4,1251.1c0,4.7-1.5,8.3-4.4,10.8s-7.1,3.7-12.5,3.7h-4v15.5h-9.2v-43.5h13.9c5.3,0,9.3,1.1,12,3.4
			C64.9,1243.2,66.3,1246.6,66.4,1251.1z M45.5,1258h3c2.8,0,5-0.6,6.4-1.7c1.4-1.2,2.2-3,2.1-4.9c0.2-1.8-0.5-3.5-1.8-4.8
			c-1.2-1-3-1.5-5.6-1.6h-4.2L45.5,1258z"/>
		<path class="st0" d="M83.8,1264.3v16.7h-9.2v-43.5h12.7c5.9,0,10.3,1.1,13.1,3.2s4.3,5.4,4.3,9.8c0,2.4-0.7,4.8-2.1,6.8
			c-1.5,2.1-3.6,3.7-6,4.7c6.6,9.8,10.8,16.1,12.8,19H99.1l-10.4-16.7L83.8,1264.3z M83.8,1256.8h3c2.9,0,5.1-0.5,6.5-1.5
			c1.4-1.1,2.2-2.8,2.1-4.6c0.2-1.8-0.7-3.4-2.1-4.4c-1.4-0.9-3.6-1.3-6.6-1.3h-2.8L83.8,1256.8z"/>
		<path class="st0" d="M140,1281h-25.1v-43.5H140v7.6h-15.8v9.6h14.7v7.6h-14.7v11.2H140V1281z"/>
		<path class="st0" d="M167.5,1244.6c-3.2-0.1-6.2,1.3-8.1,3.9c-1.9,2.6-2.9,6.3-2.9,10.9c0,9.7,3.6,14.6,10.9,14.6
			c3.8-0.1,7.6-0.9,11.1-2.3v7.7c-3.8,1.5-7.9,2.3-12,2.2c-6.3,0-11.2-1.9-14.5-5.8c-3.4-3.8-5-9.4-5-16.5
			c-0.1-4.1,0.8-8.2,2.5-11.9c1.5-3.3,4-6,7.1-7.8c3.3-1.9,7.1-2.8,10.9-2.7c4.4,0,8.8,1.1,12.8,3.1l-3,7.5c-1.6-0.8-3.2-1.4-4.9-2
			C170.8,1244.9,169.2,1244.6,167.5,1244.6z"/>
		<path class="st0" d="M223.6,1281h-9.2v-18.8h-17.3v18.8h-9.2v-43.5h9.2v17.1h17.3v-17.1h9.2V1281z"/>
		<path class="st0" d="M253,1281l-10.5-34.2h-0.3c0.4,6.9,0.6,11.6,0.6,13.9v20.3h-8.3v-43.5h12.6l10.3,33.3h0.2l10.9-33.3h12.6
			v43.5h-8.6v-20.7c0-1,0-2.1,0-3.4s0.2-4.6,0.4-10.1h-0.3l-11.2,34.1L253,1281z"/>
		<path class="st0" d="M318.7,1281l-3.2-10.4h-15.9l-3.2,10.4h-9.9l15.4-43.7h11.3l15.4,43.7H318.7z M313.4,1262.9
			c-2.9-9.4-4.6-14.7-4.9-15.9c-0.4-1.2-0.6-2.2-0.8-2.9c-0.7,2.5-2.5,8.8-5.6,18.8L313.4,1262.9z"/>
		<path class="st0" d="M359.9,1269c0.2,3.6-1.4,7.1-4.2,9.3c-2.8,2.3-6.8,3.4-11.8,3.4c-4.3,0.1-8.5-0.8-12.3-2.6v-8.6
			c2.4,1.1,4.9,2,7.5,2.8c1.8,0.5,3.7,0.8,5.6,0.8c1.6,0.1,3.3-0.3,4.7-1.2c1.1-0.8,1.7-2.1,1.6-3.5c0-0.8-0.2-1.6-0.7-2.3
			c-0.6-0.8-1.3-1.4-2.1-1.9c-1.8-1.1-3.7-2.1-5.6-2.9c-2.1-0.9-4.2-2.1-6-3.6c-1.3-1.1-2.4-2.5-3.2-4c-0.8-1.7-1.2-3.5-1.2-5.4
			c-0.2-3.5,1.3-6.8,3.9-9.1c2.6-2.2,6.2-3.3,10.8-3.3c2.2,0,4.4,0.3,6.5,0.8c2.2,0.6,4.4,1.3,6.4,2.3l-3,7.2
			c-1.9-0.8-3.8-1.5-5.8-2c-1.5-0.4-3-0.6-4.5-0.6c-1.4-0.1-2.9,0.3-4,1.2c-0.9,0.8-1.4,2-1.4,3.2c0,0.7,0.2,1.5,0.6,2.1
			c0.5,0.7,1.1,1.3,1.8,1.8c1.9,1.1,3.8,2.1,5.9,3c4.1,1.9,6.9,3.9,8.4,5.9C359.1,1263.8,359.9,1266.4,359.9,1269z"/>
		<path class="st0" d="M386.3,1244.6c-3.2-0.1-6.2,1.3-8.1,3.9c-1.9,2.6-2.9,6.3-2.9,10.9c0,9.7,3.6,14.6,10.9,14.6
			c3.8-0.1,7.6-0.9,11.1-2.3v7.7c-3.8,1.5-7.9,2.3-12,2.2c-6.3,0-11.2-1.9-14.5-5.8c-3.4-3.8-5-9.4-5-16.5
			c-0.1-4.1,0.8-8.2,2.5-11.9c1.5-3.3,4-6,7.1-7.8c3.3-1.9,7.1-2.8,10.9-2.7c4.4,0,8.8,1.1,12.8,3.1l-3,7.5c-1.6-0.8-3.2-1.4-4.9-2
			C389.5,1244.9,387.9,1244.6,386.3,1244.6z"/>
		<path class="st0" d="M442.3,1281h-9.2v-18.8h-17.2v18.8h-9.2v-43.5h9.2v17.1h17.2v-17.1h9.2V1281z"/>
		<path class="st0" d="M453.3,1281v-43.5h9.2v43.5H453.3z"/>
		<path class="st0" d="M512.1,1281h-11.7l-19-32.9h-0.3c0.4,5.8,0.6,10,0.6,12.4v20.5h-8.3v-43.5h11.7l18.9,32.6h0.2
			c-0.3-5.7-0.4-9.7-0.4-12v-20.6h8.3L512.1,1281z"/>
		<path class="st0" d="M548.2,1281h-25.1v-43.5h25.1v7.6h-15.8v9.6h14.7v7.6h-14.7v11.2h15.8V1281z"/>
	</g>
</g>
<g id="Formanten">
	<g id="Icon_3_">
		<rect x="793" y="729.4" class="st0" width="10" height="179"/>
		<rect x="793" y="904.4" class="st0" width="319" height="10"/>
		<path class="st0" d="M818,899.8l-10-0.8c1.5-17.8,3.2-36,5-54.1c2-19.5,3.7-36.4,5.2-48.6c0.8-6.6,1.5-11.3,2.1-14.6
			c0.8-4,1.8-9.4,6.8-9.2s5.6,5.7,6,9.3c0.3,3,0.6,7.3,0.8,13.2c0.4,10.7,0.7,25.1,0.9,39.1c0,3.4,0.1,7.1,0.2,10.8
			c0.4-2.8,0.8-5.4,1.2-7.8c1.6-10,3.1-16.6,8.7-16.6h0.1c5.6,0.1,6.9,6.6,8.4,16.5c0.9,6.5,1.8,14.8,2.6,23.1
			c1.4-7,3.5-10.3,7.6-10.5c5.5-0.3,7.5,5.2,9.7,12.4c1.2-8.1,2.1-19.1,2.7-26.2c0.5-5.8,1-11.4,1.5-15.4c0.6-5.3,1.3-10.8,6.5-10.8
			l0,0c4.3,0,5.4,4.1,6,7c0.3-9.9,0.6-19.9,0.9-29c0.6-19,1.1-37,1.7-50.3c0.3-7.2,0.5-12.4,0.8-16c0.1-2,0.3-3.6,0.4-4.7
			c0.6-4.9,3.2-5.9,5.3-5.9l0,0c5,0,5.3,4.7,5.5,9.3c0.2,2.8,0.3,6.9,0.5,12.5c0.3,10.5,0.6,25.1,0.9,40.6c0.4,17.9,0.8,40,1.4,59.4
			c0.5-4.7,1-9.1,1.4-12.8c0.4-3.6,0.8-6.2,1.2-8.1c0.4-2.1,1.4-7.1,6.2-6.9c5.3,0.2,5.6,5.8,5.8,11.6c0.2,4.3,0.3,10.1,0.4,16.8
			c0.2,12.8,0.5,37.4,2.7,47.5c3.9-7.6,9.5-24.7,12.8-34.8c2.3-7,4.4-13.7,6.3-18.5c2.1-5.5,4.4-11.8,10-10.5
			c6.2,1.4,5.6,8.3,3.6,33.8c-0.5,6.3-1.2,15-1.4,21.8c2.6-3.6,6-6.7,10.7-6.7h0.1c6.2,0,9.6,5.2,12.4,9.4c1,1.5,2.7,4.1,3.6,4.6
			c1.8-0.8,4.8-7.2,6.3-10.4c3.4-7.2,6.9-14.6,13.6-14.6h0.1c7.9,0,11.3,9.7,14.4,19.3c2.3-13.5,5.5-46.2,8.2-124.4
			c0.1-2.6,0.2-4.6,0.2-6c0-0.7,0-1.3,0.1-1.6c0.3-5.3,4.9-5.3,5.1-5.3s4.9,0.2,4.9,5.6c0,0.4,0,1,0,1.9c0,1.6,0,3.9,0,6.8
			c-0.2,67.1,0.9,100,2.3,115.9c2.6-8.4,5.7-15.2,11.9-15.1c7.1,0.2,9.4,9.1,12.3,20.5c0.7,2.8,1.8,6.8,2.8,9.7
			c2-5.6,3.7-11.3,5.1-17.1c4.2-16.3,7-27.1,14.7-27.1c6.1-0.1,9.1,7.2,11.2,14.3c2.6,8.7,5.2,22.4,7.8,41l-9.9,1.4
			c-3.9-28-7.1-39.4-9-44.1c-1.8,4.4-3.7,12-5.1,17c-4.3,16.7-7.2,27.7-15.1,27.4c-6.9-0.3-9.2-9-12-20.1c-0.8-3-1.9-7.4-3-10.4
			c-1.3,3-2.6,7.6-3.5,10.4c-2.6,9-4.3,14.4-9.7,14c-5.6-0.4-7-6.4-8.3-20.7c-0.1,0.8-0.2,1.5-0.3,2.2c-2,14.4-4,21.3-9.9,21.5
			c-5.4,0.2-7.2-5.3-9.9-13.6c-1.2-3.6-3.4-10.5-5.3-12.9c-1.4,1.7-3.3,5.8-4.6,8.4c-3.6,7.6-7.6,16.2-15.4,16.1
			c-5.9,0-9.2-5.1-11.9-9.1c-2.1-3.2-3.5-4.9-4.1-4.9l0,0c-1,0-2.9,2.5-5.6,7.5c-2.3,4.1-4.7,8.4-9.4,7.4c-7-1.5-6.6-11-4.2-40.8
			c0.1-0.8,0.1-1.7,0.2-2.6c-0.2,0.6-0.4,1.2-0.6,1.7c-10.8,33.4-15.7,45.9-24.1,44.7c-5.8-0.8-8.4-7.3-9.7-24.8l-0.1,0.9
			c-0.5,3.9-0.9,6.8-1.4,8.8s-1.5,7.2-6.2,7.2c-5.5-0.1-6.1-6.2-6.8-14.7c-0.3-3.1-0.5-6.9-0.8-11.4c-0.4,8.4-0.7,14.9-1.1,19.6
			c-0.2,3.1-0.4,5.3-0.7,7c-0.3,1.8-1,6.7-5.6,6.7l0,0c-4.7,0-5.4-4.9-5.7-6.9c-0.2-1.7-0.5-4.1-0.7-7.3c-0.4-4.6-0.7-10.3-1.1-16.6
			c-0.1,0.5-0.1,0.9-0.2,1.4c-1.4,9.4-3,17.2-9.1,17.5c-5.2,0.2-7.2-5-9.4-12c-0.5,3.7-0.9,7.6-1.2,10.4c-0.4,4.1-0.8,7.9-1.3,10.8
			c-0.5,3.2-1.3,8.7-6.3,8.8c-5.6,0.2-6.4-6.2-7.4-13.5c-0.8-5.7-1.5-13.1-2.3-21.1c-0.5-4.8-1-10.4-1.6-15.8
			c-0.8,5.8-1.5,11.8-2,16.6c-0.9,7.5-1.7,14.7-2.5,20c-1.1,7.3-2,13-7.4,12.8c-5.1-0.2-5.7-5.8-6.1-9.5c-0.3-3.1-0.6-7.6-0.9-13.6
			c-0.4-11-0.7-25.8-0.9-40.1c0-2-0.1-4.2-0.1-6.3c-0.6,5.9-1.2,12-1.9,18.1C821.1,863.9,819.4,882,818,899.8z"/>
	</g>
	<g id="Titel_4_">
		<path class="st0" d="M1112.8,793h-9.1v-43.6h25v7.6h-15.9v11.2h14.8v7.5h-14.8V793z"/>
		<path class="st0" d="M1176.7,771.2c0,7.2-1.8,12.8-5.4,16.6s-8.7,5.8-15.4,5.8c-6.7,0-11.8-1.9-15.4-5.8s-5.4-9.4-5.4-16.7
			c0-7.2,1.8-12.8,5.4-16.6c3.6-3.8,8.7-5.7,15.4-5.7c6.7,0,11.8,1.9,15.4,5.8S1176.7,764,1176.7,771.2z M1144.9,771.2
			c0,4.9,0.9,8.5,2.8,11c1.8,2.5,4.6,3.7,8.3,3.7c7.4,0,11.1-4.9,11.1-14.7s-3.7-14.7-11-14.7c-3.7,0-6.4,1.2-8.3,3.7
			S1144.9,766.3,1144.9,771.2z"/>
		<path class="st0" d="M1195,776.3V793h-9.2v-43.5h12.7c5.9,0,10.3,1.1,13.1,3.2c2.8,2.2,4.3,5.4,4.3,9.8c0,2.4-0.7,4.8-2.1,6.8
			c-1.5,2.1-3.6,3.7-6,4.7c6.6,9.8,10.8,16.1,12.8,19h-10.2l-10.4-16.7L1195,776.3z M1195,768.8h3c2.9,0,5.1-0.5,6.5-1.5
			c1.4-1.1,2.2-2.8,2.1-4.6c0.2-1.7-0.7-3.4-2.1-4.4c-1.4-0.9-3.6-1.3-6.6-1.3h-2.8V768.8z"/>
		<path class="st0" d="M1244.4,793l-10.4-34.2h-0.3c0.4,6.9,0.6,11.6,0.6,13.9V793h-8.3v-43.6h12.6l10.3,33.3h0.2l10.9-33.3h12.6
			V793h-8.6v-20.7c0-1,0-2.1,0.1-3.4s0.2-4.6,0.4-10.1h-0.3l-11.2,34.1L1244.4,793z"/>
		<path class="st0" d="M1310.1,793l-3.2-10.4h-15.9L1288,793h-9.9l15.4-43.7h11.3l15.4,43.7H1310.1z M1304.8,774.9
			c-2.9-9.4-4.6-14.7-4.9-15.9c-0.4-1.2-0.6-2.2-0.8-2.9c-0.7,2.5-2.5,8.8-5.6,18.8L1304.8,774.9z"/>
		<path class="st0" d="M1364.2,793h-11.7l-18.9-32.9h-0.3c0.4,5.8,0.6,10,0.6,12.4V793h-8.3v-43.6h11.6l18.9,32.6h0.2
			c-0.3-5.7-0.4-9.7-0.4-12v-20.6h8.3V793z"/>
		<path class="st0" d="M1392,793h-9.2v-35.9H1371v-7.7h32.9v7.7H1392V793z"/>
		<path class="st0" d="M1435.6,793h-25.1v-43.6h25.1v7.6h-15.8v9.6h14.7v7.6h-14.7v11.2h15.8V793z"/>
		<path class="st0" d="M1483.3,793h-11.7l-18.9-32.9h-0.3c0.4,5.8,0.6,10,0.6,12.4V793h-8.3v-43.6h11.6l18.9,32.6h0.2
			c-0.3-5.7-0.4-9.7-0.4-12v-20.6h8.3V793z"/>
	</g>
</g>
</svg>
